<svg width="16" height="16" fill="none" xmlns="http://www.w3.org/2000/svg">
    <path fill-rule="evenodd" clip-rule="evenodd" d="M4.67 4.67c0-.31 0-.58.02-.81.02-.31.06-.6.18-.88.27-.65.79-1.17 1.44-1.44.28-.12.57-.16.88-.19.3-.02.67-.02 1.12-.02h2.52c.53 0 .98 0 1.34.03.37.03.72.1 1.04.26.5.26.91.67 1.17 1.17.16.32.23.67.26 1.04.03.36.03.8.03 1.34V7.7c0 .45 0 .81-.02 1.12a2.67 2.67 0 0 1-1.63 2.32c-.28.12-.57.16-.88.18-.23.02-.5.02-.8.02l-.04.84c-.03.37-.1.72-.26 1.04-.25.5-.66.91-1.16 1.17-.33.16-.67.23-1.05.26-.36.03-.8.03-1.34.03H5.17c-.53 0-.98 0-1.34-.03-.37-.03-.72-.1-1.04-.26-.5-.26-.91-.67-1.17-1.17a2.73 2.73 0 0 1-.26-1.04c-.03-.36-.03-.8-.03-1.34V8.5c0-.54 0-.98.03-1.34.03-.38.1-.72.26-1.05.26-.5.67-.9 1.17-1.16.32-.17.67-.23 1.04-.26.24-.02.52-.03.84-.03Zm6.13-2c.57 0 .96 0 1.26.02.3.03.44.07.55.12.25.13.45.33.58.58.05.1.1.26.12.55.02.3.02.69.02 1.26v2.47l-.01 1.05c-.02.24-.05.37-.09.46-.13.32-.4.58-.72.72-.09.04-.22.07-.46.08-.19.02-.42.02-.72.02V8.5c0-.53 0-.97-.03-1.33-.03-.38-.1-.72-.26-1.05-.25-.5-.66-.9-1.16-1.16a2.73 2.73 0 0 0-1.05-.26c-.36-.03-.8-.03-1.34-.03H6c0-.3 0-.53.02-.72.01-.24.04-.37.08-.46.14-.33.4-.59.72-.72.1-.04.22-.07.46-.09l1.05-.01h2.47ZM3.4 6.15c.1-.06.25-.1.54-.13C4.24 6 4.63 6 5.2 6h2.27c.57 0 .96 0 1.26.02.29.03.44.07.54.13.25.12.46.33.58.58.06.1.1.25.13.54.02.3.02.7.02 1.26v2.27c0 .57 0 .96-.02 1.26-.03.3-.07.44-.13.55-.12.25-.33.45-.58.58-.1.05-.25.1-.54.12-.3.02-.7.02-1.26.02H5.2c-.57 0-.96 0-1.26-.02-.3-.03-.44-.07-.55-.12a1.33 1.33 0 0 1-.58-.58c-.05-.1-.1-.26-.12-.55-.02-.3-.02-.69-.02-1.26V8.53c0-.57 0-.96.02-1.26.03-.29.07-.44.12-.54.13-.25.33-.46.58-.58Z" fill="#292D32"/>
</svg>